<?xml version="1.0" encoding="utf-8"?>
<!-- Generator: Adobe Illustrator 15.0.2, SVG Export Plug-In . SVG Version: 6.00 Build 0)  -->
<!DOCTYPE svg PUBLIC "-//W3C//DTD SVG 1.1//EN" "http://www.w3.org/Graphics/SVG/1.1/DTD/svg11.dtd">
<svg version="1.1" id="Layer_1" xmlns="http://www.w3.org/2000/svg" xmlns:xlink="http://www.w3.org/1999/xlink" x="0px" y="0px"
	 width="512px" height="512px" viewBox="0 0 512 512" enable-background="new 0 0 512 512" xml:space="preserve">
<path d="M438.876,128C479.27,128,512,160.747,512,201.146v109.718c0,40.399-32.73,73.152-73.124,73.152h-182.87
	c0,10.095,8.188,18.271,18.294,18.271h109.717v36.588c0,40.394-32.753,73.124-73.152,73.124H201.146
	c-40.394,0-73.141-32.73-73.141-73.124L128,342.873c0-40.399,32.753-73.152,73.146-73.152h128.012
	c40.389,0,73.13-32.748,73.13-73.147V128H438.876z M329.158,429.718c-10.105,0-18.294,7.714-18.294,22.867
	c0,15.136,8.188,18.271,18.294,18.271c10.083,0,18.271-3.135,18.271-18.271C347.43,437.432,339.252,429.718,329.158,429.718z
	 M73.146,384.017C32.747,384.017,0,351.264,0,310.864V201.146C0,160.747,32.747,128,73.146,128h182.859
	c0-10.1-8.183-18.282-18.283-18.282H128V73.142C128,32.747,160.753,0,201.146,0h109.718c40.399,0,73.152,32.747,73.152,73.142
	v96.003c0,40.399-32.753,73.146-73.152,73.146h-128c-40.399,0-73.146,32.753-73.146,73.152v68.573H73.146z M182.864,82.288
	c10.1,0,18.282-7.709,18.282-22.855c0-15.147-8.183-18.288-18.282-18.288s-18.288,3.141-18.288,18.288
	C164.576,74.579,172.765,82.288,182.864,82.288z"/>
</svg>
